<?xml version="1.0" standalone="no"?>
<!DOCTYPE svg PUBLIC "-//W3C//DTD SVG 20010904//EN"
 "http://www.w3.org/TR/2001/REC-SVG-20010904/DTD/svg10.dtd">
<svg version="1.0" xmlns="http://www.w3.org/2000/svg"
 width="225.000000pt" height="225.000000pt" viewBox="0 0 225.000000 225.000000"
 preserveAspectRatio="xMidYMid meet">

<g transform="translate(0.000000,225.000000) scale(0.100000,-0.100000)"
fill="#0a7013" stroke="none">
<path d="M1168 2179 c-21 -11 -62 -49 -91 -84 -30 -36 -71 -77 -93 -93 -68
-50 -100 -130 -121 -304 l-17 -147 32 -84 c18 -46 32 -87 32 -92 0 -4 -38 -49
-85 -100 -91 -99 -97 -114 -70 -179 l15 -36 -26 10 c-14 6 -59 10 -100 10 -61
0 -78 -4 -94 -20 -24 -24 -26 -70 -4 -111 14 -28 14 -32 0 -48 -9 -10 -16 -27
-16 -39 0 -26 46 -82 68 -82 10 0 33 -5 53 -10 32 -9 38 -16 47 -53 13 -50 49
-88 115 -119 l46 -23 -79 -104 c-48 -62 -80 -113 -80 -127 0 -13 25 -77 55
-142 30 -65 55 -124 55 -131 0 -6 6 -14 13 -17 21 -8 123 34 171 71 24 18 54
39 67 45 32 18 121 15 173 -5 43 -17 46 -17 78 3 18 12 45 33 58 47 53 57 109
69 154 34 27 -21 28 -21 67 -4 62 28 63 34 29 119 -16 42 -30 81 -30 86 0 6
12 28 26 50 30 45 29 57 -7 192 -25 94 -25 99 28 180 l17 28 -75 72 c-82 79
-142 180 -174 292 -27 91 -18 225 19 298 21 42 27 65 23 90 -8 45 -2 56 70
137 69 76 88 128 77 202 l-7 42 -171 83 c-94 46 -180 84 -191 83 -11 0 -37 -9
-57 -20z"/>
</g>
</svg>
